<svg xmlns="http://www.w3.org/2000/svg" width="32" height="32" viewBox="0 0 32 32">
  <g id="facebook" transform="translate(0 0.201)">
    <rect id="Retângulo_3" data-name="Retângulo 3" width="32" height="32" transform="translate(0 -0.201)" fill="#2ecc71"/>
    <path id="Caminho_4" data-name="Caminho 4" d="M25.6,4.266H6.4A2.136,2.136,0,0,0,4.266,6.4V25.6A2.136,2.136,0,0,0,6.4,27.734H17.066v-9.6h-3.2v-3.2h3.2V13.215c0-3.254,1.586-4.68,4.289-4.68a15.956,15.956,0,0,1,2.3.137v3.063H21.816c-1.148,0-1.551.605-1.551,1.832v1.367h3.367l-.457,3.2h-2.91v9.6H25.6A2.136,2.136,0,0,0,27.734,25.6V6.4A2.136,2.136,0,0,0,25.6,4.266Zm0,0"/>
  </g>
</svg>
