<svg id="Github" xmlns="http://www.w3.org/2000/svg" width="31" height="32" viewBox="0 0 31 32">
  <rect id="Retângulo_5" data-name="Retângulo 5" width="31" height="32" fill="#2ecc71"/>
  <path id="Caminho_6" data-name="Caminho 6" d="M14.367,2.8A13.4,13.4,0,0,0,2.8,14.73a13.86,13.86,0,0,0,8.279,14.4c.4.141.789-.137.789-.683V26.251a5.248,5.248,0,0,1-1.182.137,2.893,2.893,0,0,1-2.761-2.607,2.848,2.848,0,0,0-.789-1.37c-.393-.137-.524-.137-.524-.273,0-.277.393-.277.524-.277.789,0,1.448.96,1.71,1.374a2.389,2.389,0,0,0,1.841,1.37,2.544,2.544,0,0,0,1.182-.273,3.531,3.531,0,0,1,1.313-2.471c-3.023-.683-5.256-2.466-5.256-5.483A6.621,6.621,0,0,1,9.5,12.264a5.19,5.19,0,0,1-.266-1.92,4.858,4.858,0,0,1,.4-2.193,5.775,5.775,0,0,1,3.677,1.784,6.8,6.8,0,0,1,2.5-.414,8.082,8.082,0,0,1,2.63.414A5.535,5.535,0,0,1,22.118,8.15a7.027,7.027,0,0,1,.266,2.193,4.654,4.654,0,0,1-.266,1.92A6.318,6.318,0,0,1,23.7,16.377c0,3.017-2.233,4.8-5.256,5.483a4.327,4.327,0,0,1,1.313,3.153v3.567a.723.723,0,0,0,.92.687,13.781,13.781,0,0,0,8.279-12.754C28.953,8.287,22.253,1.843,14.367,2.8Zm0,0" transform="translate(0 0)"/>
</svg>
