<svg xmlns="http://www.w3.org/2000/svg" width="32" height="32" viewBox="0 0 32 32">
  <g id="instagram" transform="translate(0 0.201)">
    <rect id="Retângulo_2" data-name="Retângulo 2" width="32" height="32" transform="translate(0 -0.201)" fill="#2ecc71"/>
    <path id="Caminho_3" data-name="Caminho 3" d="M10.789,3.5A7.3,7.3,0,0,0,3.5,10.793V21.207A7.3,7.3,0,0,0,10.793,28.5H21.207A7.3,7.3,0,0,0,28.5,21.207V10.789A7.3,7.3,0,0,0,21.207,3.5ZM23.5,7.5a1,1,0,1,1-1,1A1,1,0,0,1,23.5,7.5ZM16,9.5A6.5,6.5,0,1,1,9.5,16,6.505,6.505,0,0,1,16,9.5Zm0,2A4.5,4.5,0,1,0,20.5,16,4.5,4.5,0,0,0,16,11.5Zm0,0"/>
  </g>
</svg>
