<svg xmlns="http://www.w3.org/2000/svg" width="32" height="32" viewBox="0 0 32 32">
  <g id="Linkedin" transform="translate(0 0.201)">
    <rect id="Retângulo_4" data-name="Retângulo 4" width="32" height="32" transform="translate(0 -0.201)" fill="#2ecc71"/>
    <path id="Caminho_5" data-name="Caminho 5" d="M25.6,4.266H6.4A2.136,2.136,0,0,0,4.266,6.4V25.6A2.136,2.136,0,0,0,6.4,27.734H25.6A2.136,2.136,0,0,0,27.734,25.6V6.4A2.136,2.136,0,0,0,25.6,4.266Zm-13.918,19.2H8.539V13.344h3.145Zm-1.606-11.57a1.834,1.834,0,1,1,1.836-1.836A1.835,1.835,0,0,1,10.078,11.894Zm13.395,11.57H20.328V18.543c0-1.176-.023-2.684-1.637-2.684-1.637,0-1.891,1.277-1.891,2.6v5.008H13.656V13.344h3.02v1.383h.043A3.306,3.306,0,0,1,19.7,13.09c3.188,0,3.777,2.1,3.777,4.824Zm0,0"/>
  </g>
</svg>
